Coordinates
version=1
nRows=27
nColumns=12
inDegrees=yes

Units are S.I. units (second, meters, Newtons, ...)
Angles are in degrees

endheader
time	SC_y	SC_z	SC_x	AC_y	AC_z	AC_x	GH_y	GH_z	GH_yy	EL_x	PS_y
       0.0              -11.72          28.11          29.38          49.83          2.171         -0.231         -171.7          -1.44         -131.4          63.18          80.97
   0.01041              -11.72          28.11          29.38          49.83          2.171        -0.2324         -171.6         -1.439         -131.4          63.17          80.96
   0.02083              -11.73          28.11          29.38          49.82          2.172         -0.234         -171.6         -1.438         -131.4          63.17          80.95
   0.03124              -11.73           28.1          29.38          49.82          2.172        -0.2357         -171.6         -1.437         -131.4          63.16          80.95
   0.04165              -11.74           28.1          29.38          49.82          2.172        -0.2375         -171.5         -1.436         -131.4          63.15          80.94
   0.05207              -11.75          28.09          29.38          49.82          2.173        -0.2394         -171.5         -1.435         -131.4          63.14          80.93
   0.06248              -11.76          28.09          29.38          49.82          2.173        -0.2414         -171.5         -1.433         -131.4          63.13          80.92
    0.0729              -11.77          28.09          29.38          49.82          2.174        -0.2436         -171.4         -1.432         -131.4          63.12           80.9
   0.08331              -11.78          28.08          29.38          49.82          2.174         -0.246         -171.4          -1.43         -131.4          63.11          80.89
   0.09372              -11.79          28.07          29.38          49.82          2.175        -0.2485         -171.3         -1.429         -131.4           63.1          80.88
    0.1041               -11.8          28.07          29.38          49.82          2.175        -0.2512         -171.3         -1.427         -131.4          63.08          80.86
    0.1145              -11.81          28.06          29.38          49.81          2.176        -0.2541         -171.2         -1.425         -131.4          63.07          80.85
     0.125              -11.82          28.06          29.38          49.81          2.177        -0.2572         -171.2         -1.423         -131.4          63.05          80.83
    0.1354              -11.84          28.05          29.38          49.81          2.177        -0.2606         -171.1          -1.42         -131.4          63.04          80.82
    0.1458              -11.85          28.04          29.38          49.81          2.178        -0.2642         -171.0         -1.418         -131.4          63.02           80.8
    0.1562              -11.87          28.03          29.38          49.81          2.179        -0.2682         -170.9         -1.415         -131.4           63.0          80.78
    0.1666              -11.88          28.02          29.38           49.8           2.18        -0.2725         -170.9         -1.412         -131.4          62.98          80.75
     0.177               -11.9          28.01          29.38           49.8          2.181        -0.2772         -170.8         -1.409         -131.4          62.96          80.73
    0.1874              -11.92           28.0          29.38           49.8          2.182        -0.2823         -170.7         -1.406         -131.4          62.93           80.7
    0.1979              -11.95          27.99          29.38           49.8          2.184        -0.2879         -170.6         -1.402         -131.5           62.9          80.67
    0.2083              -11.97          27.97          29.38          49.79          2.185         -0.294         -170.4         -1.398         -131.5          62.87          80.64
    0.2187               -12.0          27.96          29.38          49.79          2.186        -0.3008         -170.3         -1.393         -131.5          62.84           80.6
    0.2291              -12.03          27.94          29.38          49.78          2.188        -0.3083         -170.2         -1.388         -131.5           62.8          80.56
    0.2395              -12.06          27.93          29.38          49.78           2.19        -0.3166         -170.0         -1.383         -131.5          62.76          80.52
    0.2499               -12.1           27.9          29.38          49.77          2.192        -0.3258         -169.8         -1.377         -131.5          62.72          80.47
    0.2603              -12.14          27.88          29.38          49.77          2.194         -0.336         -169.6          -1.37         -131.5          62.67          80.42
    0.2708              -12.19          27.86          29.38          49.76          2.197        -0.3476         -169.4         -1.362         -131.5          62.61          80.36
